# xmcd
#
# Track frame offsets:
#	150
#	17175
#	38190
#	55890
#	71850
#	93565
#	112095
#	130298
#	144395
#	164430
#
# Disc length: 2488 seconds
# Revision: 3
# Processed by: cddbd v1.5.2PL0 Copyright (c) Steve Scherf et al.
# Submitted via: dBpowerAMP V12.0
#
DISCID=9409b60a
DTITLE=Kennedy Rose - Hai Ku [dBP-LITE-1-FLAC@]
DYEAR=1989
DGENRE=Pop
TTITLE0=Hia Ku/ Love Like This
TTITLE1=The Only Chain
TTITLE2=After Your Arms
TTITLE3=Faithful
TTITLE4=Variation On A Theme In D Minor/ Western Fires
TTITLE5=Love Is The Healer
TTITLE6=Who's Gonna Hold You
TTITLE7=Born To Give My Love
TTITLE8=Nightline
TTITLE9=Leavin' Line
EXTD=
EXTT0=
EXTT1=
EXTT2=
EXTT3=
EXTT4=
EXTT5=
EXTT6=
EXTT7=
EXTT8=
EXTT9=
PLAYORDER=
